<?xml version="1.0" encoding="UTF-8"?>
<svg id="Layer_1" xmlns="http://www.w3.org/2000/svg" version="1.1" viewBox="0 0 240 240">
  <!-- Generator: Adobe Illustrator 30.1.0, SVG Export Plug-In . SVG Version: 2.1.1 Build 136)  -->
  <defs>
    <style>
      .st0 {
        fill: #daff00;
      }

      .st1 {
        fill: #f1f2f2;
      }

      .st2 {
        fill: #240830;
      }
    </style>
  </defs>
  <rect class="st2" width="240" height="240"/>
  <g>
    <path class="st1" d="M98.95,80.47h0c1.29,0,2.23.12,3.05.35l-2.11,3.75c5.04.35,9.96,3.75,13.7,9.02-1.76,1.64-2.81,2.23-3.87,3.4,1.41,2.46,2.23,5.74,2.23,9.02,0,1.76-.23,3.51-.82,4.8h-.47c-.59,0-1.41-.23-2.23-.23h0c-.47,0-.94,0-1.17.23-.59,5.74-2.34,9.96-5.62,13.59,4.22,2.93,8.78,8.55,10.31,13.24l-3.75,2.46c1.29,3.98,1.87,7.03,1.87,10.31,0,4.22-.94,8.43-3.05,13.24-.7-.47-2.23-2.34-3.51-3.63-2.58,6.56-7.14,12.06-11.24,13.82l-1.05-4.1c-7.03,4.69-12.18,7.5-15.11,8.55l-.23-5.74-16.28,7.26.59-16.75-3.87,2.11,2.34-24.6-4.33,1.99,3.51-20.97-3.87,1.29c.82-6.79,2.34-18.04,3.4-23.89,3.87-4.92,8.78-9.14,14.64-12.65l.47,3.05c3.98-3.4,9.37-7.26,12.3-8.43.7,1.64,1.17,2.69,1.41,3.16,3.98-2.34,9.02-3.75,12.88-3.75M74.12,115.72l3.63-1.05-.23,9.14c2.81-1.29,5.74-4.45,6.91-7.14.94.47,1.87,1.17,2.46,1.29,3.16-2.81,3.16-6.91,3.28-10.89-.47-.23-1.41-.47-2.58-.47h-1.17l.94-4.1c-.7-.12-1.29-.23-1.99-.23h0c-3.05,0-6.33,1.17-9.37,3.4l-1.76,9.96M77.28,148.64l2.58-.94-.59,9.25c6.79-2.93,10.78-9.25,11.24-17.45l-5.27.47.7-3.4c-3.16,1.41-6.79,3.05-8.43,3.4l-.23,8.78M77.75,114.55h0M79.86,147.7h0M98.95,71.68c-3.16,0-6.56.59-9.96,1.64-1.29-.7-2.81-1.17-4.33-1.17-1.17,0-2.34.23-3.51.7-2.34.94-5.15,2.81-7.96,4.8h-1.29c-1.64,0-3.16.47-4.57,1.29-6.91,4.22-12.65,9.25-16.98,14.76-.82,1.05-1.41,2.34-1.76,3.75-1.29,6.56-2.81,18.39-3.51,24.6-.35,2.58.59,5.27,2.34,7.14l-1.99,12.06c-.59,3.16.7,6.44,3.28,8.43h0l-1.41,14.76c-.23,3.05,1.05,6.09,3.51,7.85l-.23,7.38c0,3.05,1.41,5.86,3.87,7.61,1.52,1.05,3.16,1.52,4.92,1.52,1.17,0,2.46-.23,3.51-.7l7.03-3.05s.7.59,1.05.82c1.52.94,3.16,1.52,4.92,1.52,1.05,0,2.11-.23,3.05-.59,2.46-.94,5.51-2.46,9.37-4.8,1.17.59,2.46.82,3.75.82,1.17,0,2.23-.23,3.28-.7,4.1-1.64,7.96-5.04,11.24-9.6h.35c.82,0,1.64,0,2.46-.35,2.46-.7,4.57-2.58,5.62-4.92,2.58-5.74,3.75-11.13,3.75-16.75,0-2.23-.12-4.45-.59-6.68,2.23-2.34,3.05-5.74,1.99-8.9-1.41-4.33-4.22-8.43-7.26-11.83.59-1.29,1.17-2.69,1.52-4.1.23,0,.35-.12.59-.23,1.99-1.05,3.51-2.69,4.33-4.8,1.05-2.81,1.29-5.86,1.29-7.85,0-2.23-.23-4.33-.7-6.44,2.81-3.05,3.16-7.61.82-11.01-2.81-4.1-6.33-7.38-10.19-9.6,0-.47-.23-.94-.47-1.41-1.05-2.46-3.05-4.45-5.62-5.15-1.64-.47-3.4-.7-5.51-.7h-.12l.12-.12Z"/>
    <path class="st0" d="M135.03,140.91l-4.8,1.76,2.81-29.63-3.98,1.99,2.58-26.71-5.04,3.16,3.75-27.06c4.45-4.8,14.41-10.07,21.32-11.01v3.63c4.69-2.81,10.66-4.69,19.44-5.86l-.82,4.1,3.05-.35c9.6,0,16.52,6.79,16.52,16.05,0,1.64,0,2.23-.12,2.81l5.27-.7c-.47,8.9-3.05,16.52-8.43,25.42,1.17.7,3.63,1.99,4.45,2.81-3.05,5.04-12.77,13.24-18.04,14.88l3.16,3.75c-4.92,4.33-14.06,8.55-22.14,10.07-.47,2.34-1.17,9.14-1.76,13.47l5.86-2.34-.7,19.21-12.88,6.44v-4.8l-11.95,6.56,2.34-27.41.12-.23ZM168.06,97.1s-1.87-1.41-2.93-2.46c3.05-2.34,5.04-5.97,5.04-9.49,0-3.05-1.76-5.51-4.8-6.68l1.99-3.51c-1.17-1.05-2.81-1.41-4.33-1.41-3.05,0-7.38,1.87-10.31,4.33l-.82,12.53,4.22-1.87-.82,15.58c5.51-.59,9.6-2.81,12.77-7.03Z"/>
  </g>
</svg>