<?xml version="1.0" encoding="UTF-8"?>
<svg id="Layer_1" xmlns="http://www.w3.org/2000/svg" version="1.1" viewBox="0 0 15.41 15.41">
  <!-- Generator: Adobe Illustrator 30.1.0, SVG Export Plug-In . SVG Version: 2.1.1 Build 136)  -->
  <defs>
    <style>
      .st0 {
        fill: #f1f2f2;
      }

      .st1 {
        fill: #daff00;
      }
    </style>
  </defs>
  <path class="st0" d="M5.9,4.33s0,0,0,0c.11,0,.19.01.26.03l-.18.32c.43.03.85.32,1.17.77-.15.14-.24.19-.33.29.12.21.19.49.19.77,0,.15-.02.3-.07.41-.01,0-.02,0-.04,0-.05,0-.12-.02-.19-.02,0,0,0,0,0,0-.04,0-.08,0-.1.02-.05.49-.2.85-.48,1.16.36.25.75.73.88,1.13l-.32.21c.11.34.16.6.16.88,0,.36-.08.72-.26,1.13-.06-.04-.19-.2-.3-.31-.22.56-.61,1.03-.96,1.18l-.09-.35c-.6.4-1.04.64-1.29.73l-.02-.49-1.39.62.05-1.43-.33.18.2-2.1-.37.17.3-1.79-.33.11c.07-.58.2-1.54.29-2.04.33-.42.75-.78,1.25-1.08l.04.26c.34-.29.8-.62,1.05-.72.06.14.1.23.12.27.34-.2.77-.32,1.1-.32M3.78,7.34l.31-.09-.02.78c.24-.11.49-.38.59-.61.08.04.16.1.21.11.27-.24.27-.59.28-.93-.04-.02-.12-.04-.22-.04-.03,0-.07,0-.1,0l.08-.35c-.06-.01-.11-.02-.17-.02,0,0,0,0,0,0-.26,0-.54.1-.8.29l-.15.85M4.05,10.15l.22-.08-.05.79c.58-.25.92-.79.96-1.49l-.45.04.06-.29c-.27.12-.58.26-.72.29l-.02.75M4.09,7.24h0M4.27,10.07h0M5.9,3.58c-.27,0-.56.05-.85.14-.11-.06-.24-.1-.37-.1-.1,0-.2.02-.3.06-.2.08-.44.24-.68.41-.04,0-.07,0-.11,0-.14,0-.27.04-.39.11-.59.36-1.08.79-1.45,1.26-.07.09-.12.2-.15.32-.11.56-.24,1.57-.3,2.1-.03.22.05.45.2.61l-.17,1.03c-.05.27.06.55.28.72,0,0,0,0,0,0l-.12,1.26c-.02.26.09.52.3.67l-.02.63c0,.26.12.5.33.65.13.09.27.13.42.13.1,0,.21-.02.3-.06l.6-.26s.06.05.09.07c.13.08.27.13.42.13.09,0,.18-.02.26-.05.21-.08.47-.21.8-.41.1.05.21.07.32.07.1,0,.19-.02.28-.06.35-.14.68-.43.96-.82,0,0,.02,0,.03,0,.07,0,.14,0,.21-.03.21-.06.39-.22.48-.42.22-.49.32-.95.32-1.43,0-.19-.01-.38-.05-.57.19-.2.26-.49.17-.76-.12-.37-.36-.72-.62-1.01.05-.11.1-.23.13-.35.02,0,.03-.01.05-.02.17-.09.3-.23.37-.41.09-.24.11-.5.11-.67,0-.19-.02-.37-.06-.55.24-.26.27-.65.07-.94-.24-.35-.54-.63-.87-.82,0-.04-.02-.08-.04-.12-.09-.21-.26-.38-.48-.44-.14-.04-.29-.06-.47-.06,0,0,0,0-.01,0h0Z"/>
  <path class="st1" d="M8.98,9.49l-.41.15.24-2.53-.34.17.22-2.28-.43.27.32-2.31c.38-.41,1.23-.86,1.82-.94v.31c.4-.24.91-.4,1.66-.5l-.07.35.26-.03c.82,0,1.41.58,1.41,1.37,0,.14,0,.19-.01.24l.45-.06c-.04.76-.26,1.41-.72,2.17.1.06.31.17.38.24-.26.43-1.09,1.13-1.54,1.27l.27.32c-.42.37-1.2.73-1.89.86-.04.2-.1.78-.15,1.15l.5-.2-.06,1.64-1.1.55v-.41s-1.02.56-1.02.56l.2-2.34ZM11.8,5.75s-.16-.12-.25-.21c.26-.2.43-.51.43-.81,0-.26-.15-.47-.41-.57l.17-.3c-.1-.09-.24-.12-.37-.12-.26,0-.63.16-.88.37l-.07,1.07.36-.16-.07,1.33c.47-.05.82-.24,1.09-.6Z"/>
</svg>