<?xml version="1.0" encoding="UTF-8"?>
<svg id="Layer_1" xmlns="http://www.w3.org/2000/svg" version="1.1" viewBox="0 0 84 20.04">
  <!-- Generator: Adobe Illustrator 30.1.0, SVG Export Plug-In . SVG Version: 2.1.1 Build 136)  -->
  <defs>
    <style>
      .st0 {
        fill: #f0f1f1;
      }

      .st1 {
        fill: #daff00;
      }
    </style>
  </defs>
  <g>
    <path class="st0" d="M41.81,5.69c.16-.12.28-.3.33-.5.05-.2.07-.4.07-.67,0-.38-.11-.89-.3-1.36.26-.33.27-.82,0-1.16-.46-.59-1.12-.96-1.83-1.07-.16-.3-.46-.5-.83-.5h-.02c-.64,0-1.17.2-1.62.43-.13-.07-.26-.09-.4-.09-.09,0-.19,0-.28.05-.57.18-1.26.5-1.84.85-.18-.2-.42-.34-.71-.34h-.04c-.13,0-.25.03-.36.08l-1.85.8c-.14-.07-.3-.12-.46-.12h-.05c-.12,0-.23.04-.33.08l-1.98.81c-.1.05-.2.11-.27.19-.03-.05-.03-.09-.06-.14-.14-.21-.36-.35-.61-.4-.23-.05-.4-.05-.59-.05-1.15,0-2.69.39-3.48.87-.25.16-.4.41-.44.68-.68.34-1.25.83-1.64,1.38l.1-.42c.04-.09.06-.2.06-.3,0-.51-.42-.93-.93-.93h-.05c-.13,0-.26.04-.36.09l-.28.13s-.02,0-.03-.02c-.15-.09-.32-.14-.48-.14-.15,0-.29.04-.42.1l-1.33.67c-.26.13-.45.38-.49.67l-.16.89-.12-.37c-.08-.27-.29-.48-.55-.59-.11-.05-.22-.06-.33-.06-.17,0-.33.05-.46.12l-.08.06c-.06-.05-.12-.08-.19-.11-.12-.06-.24-.07-.37-.07-.18,0-.35.05-.51.15l-1.19.79c-.1-.4-.45-.71-.88-.71h-.05c-.12,0-.23.03-.33.07l-.26.11c-.07-.07-.14-.12-.23-.16-.12-.06-.25-.08-.39-.08-.19,0-.37.06-.52.16l-.66.45c-.13-.06-.27-.09-.41-.09-.17,0-.33.05-.48.14l-1.51.92c-.2.12-.35.33-.41.55l-.03.1c-.15-.12-.3-.24-.46-.33,0-.06-.03-.12-.05-.18-.11-.26-.33-.46-.6-.54-.19-.06-.38-.08-.6-.08-.36,0-.76.07-1.14.2-.15-.08-.31-.13-.47-.13-.13,0-.25.02-.37.07-.25.11-.59.32-.91.55-.06,0-.1,0-.16,0-.17,0-.33.05-.48.14-.78.47-1.41,1.03-1.9,1.65-.09.12-.15.25-.18.4-.14.74-.32,2.07-.39,2.77-.03.29.07.58.28.77l-.23,1.39c-.06.34.08.69.35.89,0,0,.03.02.04.02l-.16,1.71c-.03.33.12.66.4.85l-.03.87c0,.32.15.62.41.8.16.1.34.16.52.16.13,0,.26-.03.38-.08l.83-.37s.09.08.15.11c.15.1.33.16.51.16.11,0,.22-.02.33-.06.28-.1.64-.29,1.08-.56h0c.13.07.27.1.42.1.11,0,.23-.03.35-.07.46-.19.85-.56,1.16-.98.05.07.1.14.17.2.17.15.39.23.61.23.09,0,.2,0,.29-.05l.34-.11c.06.07.13.12.2.16.14.08.31.13.46.13.14,0,.29-.04.43-.11l1.18-.61s.06-.03.08-.05c0,0,0,0,.02.02.15.1.33.15.5.15.15,0,.29-.04.42-.1l.35-.18s.02,0,.03.02c.14.08.3.12.46.12.14,0,.28-.03.4-.09l1.13-.54s.05-.04.07-.05c.08.12.2.23.33.31.14.07.29.11.44.11.2,0,.39-.06.55-.18l.31-.22h0c.12.06.25.08.38.08.21,0,.42-.07.59-.21l.92-.77c.17-.14.28-.33.32-.54.12.19.31.33.52.4.08.02.18.04.27.04.18,0,.34-.06.5-.15.06.04.11.07.18.08.1.05.21.07.33.07.2,0,.4-.07.57-.2l1.06-.83c.19-.14.31-.34.34-.58l.19-1.05c.14.32.32.63.55,1.01.16.26.45.43.76.44,0,0,.02,0,.03,0,.12,0,.23-.03.34-.07.62.42,1.44.66,2.35.7h.04c.26,0,.5-.1.68-.3.09-.09.16-.21.2-.33.71-.19,1.38-.55,1.84-1,.05.21.16.41.33.55.17.12.36.2.57.2.12,0,.24-.03.35-.07l.64-.26c.06.06.14.11.22.16.13.07.28.1.43.1.17,0,.33-.05.47-.13l.59-.35s.04.03.06.04c.15.08.31.13.46.13s.31-.05.45-.12l1.44-.79s0,0,0-.02c.07.13.17.24.3.33.15.1.33.16.51.16.14,0,.28-.03.41-.09l.31-.15h0c.14.07.29.11.45.11s.33-.04.46-.12l1.23-.71c.18-.1.31-.26.39-.44.14.23.37.39.64.44.06,0,.1,0,.15,0,.27,0,.53-.12.71-.33l.09-.11h.08c.27,0,.52-.11.71-.33l.65-.76c.22-.26.28-.61.17-.93l-.91-2.42c-.05-.14-.14-.26-.24-.36.11-.05.22-.13.31-.23.33-.37.56-.95.65-1.62ZM7.48,15.34c0,.47-.1.95-.33,1.49-.08-.06-.25-.26-.41-.4-.29.73-.79,1.37-1.26,1.56l-.13-.46c-.79.53-1.37.85-1.7.98l-.03-.64-1.84.83.06-1.9-.43.23.25-2.77-.49.22.39-2.37-.43.15c.08-.76.25-2.03.37-2.7.44-.56.99-1.03,1.64-1.43l.06.34c.45-.39,1.06-.82,1.38-.96.08.18.14.31.15.36.45-.27,1.02-.44,1.47-.44.14,0,.25.02.34.05l-.23.42c.57.04,1.12.42,1.54,1.01-.2.19-.32.25-.43.39.15.28.25.64.25,1.02,0,.2-.03.39-.08.54-.06.03-.19,0-.31,0-.06,0-.11,0-.14.03-.07.64-.27,1.12-.63,1.53.47.33.99.96,1.17,1.49l-.42.28c.16.45.21.8.21,1.16ZM13.67,16.21l-1.13.54-.04-.47-1.22.61.07-1.51-.38.2.14-1.15-.86.37-.17,1.06.31-.03-.14,1.05-1.18.61-.03-.53-1.27.4.33-1.6-.35.04.64-2.62-.47.06.63-2.43-.52.03.81-3.06,1.51-.92.03.56,1.56-1.07.06.56,1.2-.5-.32,3.48.54-.22-.25,2.42.52-.08-.33,2.51.4-.14-.07,1.84ZM21.43,6.64l-.59,2.55.49-.09-.6,2.87.55-.27-.45,2.56-1.06.83-.13-.64-.87.64-.78-2.08-.33.44-1.06-2.61.06,2.69.47-.33-.07,2.21-.92.77-.03-.58-1.22.89.13-2.65-.47.28.2-2.49-.39.2.34-2.54-.53.22.27-2.47,1.32-.87.1.59,1-.58.73,2.31.33-.29.93,2.24.22-2.74-.57.29.43-2.45,1.33-.67v.49l1.2-.56-.52,1.93.47-.09ZM28.78,10.52c-.17,1.01-.52,1.82-.98,2.2l.42.29c-.46.56-1.45.99-2.28,1l.06.5c-1.07-.04-1.98-.43-2.42-1.06l-.31.44c-.61-1-.78-1.48-.82-2.59l-.52.22c-.06-1.06.1-1.8.6-2.72l-.59-.11c.2-.84.81-1.84,1.42-2.29l-.42-.28c.42-.64,1.23-1.2,2.12-1.45l-.25-.42c.65-.41,2.01-.74,2.99-.74.17,0,.27,0,.42.03l-.29,1.24.45-.1-.35,1.67c-.23-.07-.45-.09-.64-.09-.25,0-.48.03-.72.14l.07.46c-.77-.03-1.28.19-1.8.7l.47.17c-.81.72-1,1.03-1.23,1.92l.42-.09c-.04.39-.06.62-.06.84,0,.45.07.82.22,1.14l.2-.28c.44.42.83.59,1.28.59l-.17-.39c.36-.36.56-.69.59-.97l-1.06.3.17-1.19-.4.13.29-1.13,1.66-.61-.13.56,1.66-.59c-.02,1.05-.2,2.09-.47,2.69l.39-.11ZM32.13,6l-.12.7,1.9-.73-.22,1.03.38-.13-.25,1.34-1.2.67-.05-.36-.75.41-.12.81.4-.2-.12,1.06,1.26-.72.03.35,1.13-.69-.24,1.64.33-.08-.2,1.35-1.44.8v-.61s-1.59.93-1.59.93l-.04-.59-1.61.66.31-2.25-.53.19.35-2.03-.44.12.5-2.09-.48.08.45-1.96-.46.07.38-1.9,1.99-.83-.07.44,2.77-1.2-.18,1.11.32-.1-.18,1.38-1.31.71-.05-.46-1.15.59-.1.63.39-.13ZM40.46,6.7l-.29-.23c-.28.5-.49.73-.77.92.06.12.24.72.36,1.19l.46-.33.9,2.41-.65.76-.19-.38-.7.82-.62-1.55-.44.38-.98-2.15-.07,1.65.46-.23v2.01l-1.23.71v-.44s-1.17.57-1.17.57l.17-2.94-.45.1.24-2.49-.38.12.31-2.24-.5.15c.07-.69.21-2.07.27-2.8.54-.39,1.38-.81,2.01-1l.04.42c.58-.31,1.19-.73,2-.75l-.16.55c.2-.05.38-.07.58-.07.59,0,1.12.27,1.51.75l-.45.38c.25.25.55,1.05.55,1.55,0,.19-.02.33-.05.44-.14-.03-.22-.06-.32-.08.03.76-.17,1.5-.46,1.82Z"/>
    <path class="st0" d="M5.26,14.09c-.04.94-.48,1.64-1.25,1.98l.06-1.04-.29.11.03-.99c.18-.04.59-.22.95-.39l-.08.39.59-.06Z"/>
    <path class="st0" d="M5.21,10.43c0,.45,0,.9-.36,1.23-.07-.02-.17-.08-.28-.14-.14.31-.46.65-.78.81l.03-1.03-.4.12.2-1.12c.34-.25.71-.39,1.06-.39.08,0,.14,0,.22.03l-.1.46c.2,0,.35,0,.42.05Z"/>
    <polygon class="st0" points="11.25 10.77 11.14 12.56 10.28 12.89 10.49 11.44 10.19 11.54 10.86 9.44 10.95 10.95 11.25 10.77"/>
    <path class="st0" d="M38.96,4.4l-.34.11c.03.38-.03.81-.2,1.12-.19.39-.59.69-.86.93,0-.21.06-.85.09-1.3l-.45.13.08-1.44c.28-.2.66-.33.88-.33.37,0,.75.38.79.77Z"/>
  </g>
  <g>
    <g>
      <path class="st1" d="M44.22,15.2l-.45.17.26-2.81-.37.19.25-2.54-.48.3.36-2.57c.43-.46,1.37-.95,2.03-1.05v.35c.44-.26,1.01-.44,1.85-.55l-.08.39.29-.03c.91,0,1.57.65,1.57,1.52,0,.15,0,.21-.01.26l.5-.07c-.04.84-.29,1.57-.8,2.41.11.07.35.19.43.26-.29.48-1.21,1.25-1.71,1.41l.3.36c-.47.41-1.34.81-2.1.95-.04.22-.11.87-.16,1.28l.55-.22-.07,1.82-1.23.61v-.45s-1.13.62-1.13.62l.22-2.61ZM47.36,11.04c-.05-.05-.18-.14-.28-.23.29-.22.48-.57.48-.9,0-.29-.17-.52-.45-.64l.19-.33c-.11-.1-.26-.14-.41-.14-.29,0-.7.18-.98.41l-.08,1.19.4-.18-.08,1.48c.52-.05.91-.26,1.21-.66Z"/>
      <path class="st1" d="M51.88,15.52l-1.04.41.26-2.74-.54.3.41-3.1-.51.19.4-2.44-.5.14.26-2,1.59-.55-.1.68,1.49-.65-.52,2.73.39-.18-.43,2.54.43-.1-.44,2.66.41-.08-.33,2.17-1.31.63.07-.61Z"/>
      <path class="st1" d="M56.07,14.97c-.14,0-.23-.01-.35-.03.01-.23.05-.44.11-.61-.76-.3-1.27-.81-1.63-1.63l.32-.32c-.26-.66-.4-1.31-.4-1.9,0-.28.03-.54.08-.8l.37.12c-.05-.59.29-1.88.74-2.72.1.04.21.15.28.21.5-.85.92-1.46,1.3-1.79.07.08.25.25.3.36.3-.52,1.23-1.12,2.22-1.42-.04.33-.17,1.02-.25,1.57l.51-.17-.28,1.64c-.43.18-.92.55-1.19.86-.04-.18-.15-.39-.29-.54-.4.41-.77,1.34-.79,1.99l-.47-.26c-.06.15-.07.34-.07.55,0,.52.15,1.14.37,1.46l-.36.24c.25.29.57.45.91.45.21,0,.41-.05.61-.17l.04.45c.08,0,.73-.29,1.39-.65l-.21,1.28.47-.22c0,.28-.07.76-.16,1.14-.88.7-1.66,1.12-2.26,1.23l.03-.65c-.45.19-.97.3-1.37.3Z"/>
      <path class="st1" d="M61.73,14.21l-1.16.47.26-2.32-.45.21.47-2.74-.52.19.44-2.55-.48.17.4-3.01,1.52-.73-.07.69,1.1-.4-.48,2.28.47-.26-.07,1.59,1.31-1.86-.5-.07,1.1-1.86,1.64.14-.34.43h1.13l-1.45,1.88.54.08-1.75,2.34.4,1.5.39-.23.43,1.65.4-.32.69,2.17-.99.73-.04-.41-1.01.68-.39-1.39-.35.43-.41-1.99-.29.4-.74-1.78-.19,2.3.44-.14-.08,1.61-1.35.66v-.52Z"/>
      <path class="st1" d="M68.72,13.1l.37-.34-1.03-.62c.58-.5,1.16-1.13,1.39-1.52l.41.28c.07-.14.11-.26.11-.4,0-.62-.94-1.43-1.64-1.43l.4-.52c-.85-.25-1.44-1.09-1.44-2.1,0-.25.01-.43.06-.58l.45.24c.1-.98.4-1.75.87-2.21l.26.41c.58-.9,1.3-1.5,2.47-2.06l.36,1.26.47-.43.15,1.67c-.36.12-.9.63-1.21,1.17l-.33-.52c-.47.39-.77.84-.77,1.2,0,.65,1.01.8,1.38,1.2l-.36.37c.76.18,1.54,1.2,1.54,1.97,0,.11-.01.21-.04.29l-.37-.03c.04.8-.25,1.78-.74,2.33l-.33-.28c-.19.48-.73,1.02-1.28,1.28l-1.14-.64Z"/>
    </g>
    <path class="st1" d="M83.81,6.82l-.65.02c.19-.4.16-1.06-.04-1.78-.06-.28-.07-.33-.12-.41l-.56.16c-.25-.98-1.21-2.04-2.22-2.44l-.32.47c-.49-.23-1.54-.34-2.41-.24-.26.03-.45.06-.62.12l.19.38c-.86.18-2.08.86-2.38,1.31l.51.22c-.61.64-.92,1.45-.9,2.33l.57-.1c-.17.62-.14,1.44.08,2.25.06.26.09.32.13.41l.49-.23c.39.97.96,1.79,1.46,2.14l.41-.47c.38.37,1.41.71,2.37.75l.05-.45c.46.05.96.03,1.46-.03.34-.03.68-.09,1.01-.18l-.32-.41c.72-.27,1.46-.88,1.63-1.41l-.51-.24c.45-.5.7-1.29.69-2.17ZM82.3,6.1c.03.18-.09,1.03-.2,1.1-.06.03-.92-.04-1.04-.06-.29-.05-.7-1.15-.96-1.39.06-.4.4-.69.39-1.1.07-.07.83.08.96.15.24.12.81,1.04.85,1.3ZM80.66,7.07c.03.15-.7,1.5-.85,1.59-.1.06-1.36.06-1.48,0s-.8-1.33-.8-1.55c0-.16.65-1.29.75-1.34.14-.06,1.5-.08,1.59-.03.06.04.77,1.22.79,1.33ZM81.35,4.19c.05.08,0,.23.01.32-.27-.05-.63-.02-.89-.08-.23-.05-.36-.24-.54-.33-.17-.09-.8-.23-.72-.49.12-.41,2.01.35,2.14.58ZM76.95,4.11c.34-.29,1.34-.63,1.79-.65.25,0,.26.17.13.35-.72.34-1.24.76-2.09.7-.03-.19.03-.28.17-.4ZM76.12,5.5c.38-.65.74-.9,1.53-.84-.01.22.41.94.41,1.03,0,.2-.7,1.03-.73,1.34-.14.16-1.03.18-1.28.17.02-.27-.28-.76-.27-.97,0-.04.29-.65.34-.73ZM75.67,8.69c-.2-.43-.41-1.53-.3-1.97.01-.05.29-.22.33-.18-.02.37.3.8.34,1.1.05.34-.06.73.06,1.08-.19.21-.3.25-.43-.03ZM77.03,10.3c-.19-.13-1.28-1.06-1.06-1.27.35-.08.47.23.68.37.5.31.92.47,1.31.98.05.06.13.08.1.2-.35.13-.73-.09-1.03-.28ZM79.7,10.56c-.27.08-.97.07-1.24-.01-.11-.04-.77-.68-.79-.76-.04-.12.63-.91.78-.95.19-.06,1.27-.04,1.41.07.21.17.43.64.68.83,0,.06-.77.8-.84.82ZM81.97,9.54c-.42.5-1.19,1.2-1.89,1.04-.02-.11.04-.14.1-.21.44-.46.81-.64,1.31-.98.18-.12.27-.37.51-.37.44,0,.12.34-.03.52ZM82.44,8.8c-.1.13-.19.08-.33.02.06-.42,0-1.04.08-1.43.02-.09.2-.56.25-.68.03-.08.05-.2.17-.17.38.08.08,1.96-.17,2.26Z"/>
  </g>
</svg>