<svg xmlns="http://www.w3.org/2000/svg" viewBox="0 0 32 32" width="32" height="32">
  <circle cx="16" cy="16" r="16" fill="#1a73e8"/>
  <path d="M16 4c6.627 0 12 5.373 12 12s-5.373 12-12 12S4 22.627 4 16 9.373 4 16 4z" fill="#ffffff" opacity="0.1"/>
  <path d="M16 8c4.418 0 8 3.582 8 8s-3.582 8-8 8-8-3.582-8-8 3.582-8 8-8z" fill="#ffffff" opacity="0.2"/>
  <circle cx="16" cy="16" r="4" fill="#ffffff" opacity="0.3"/>
  <path d="M8 12l4-4 4 4M8 20l4 4 4-4M24 12l-4-4-4 4M24 20l-4 4-4-4" stroke="#ffffff" stroke-width="1" opacity="0.4" fill="none"/>
</svg>
